<?xml version="1.0"?><svg version="1.0" xmlns="http://www.w3.org/2000/svg" viewBox="398 1586 3349 996" preserveAspectRatio="xMidYMid meet" xmlns:c2pa="http://c2pa.org/manifest"><metadata><c2pa:manifest>AAAWgmp1bWIAAAAeanVtZGMycGEAEQAQgAAAqgA4m3EDYzJwYQAAABZcanVtYgAAAEdqdW1kYzJtYQARABCAAACqADibcQN1cm46YzJwYTo4ZWQwOTExOC1lODM3LTQ0NTItYTJhNi1hM2U0MzRhOGE1M2IAAAADl2p1bWIAAAApanVtZGMyYXMAEQAQgAAAqgA4m3EDYzJwYS5hc3NlcnRpb25zAAAAALxqdW1iAAAARGp1bWRjYm9yABEAEIAAAKoAOJtxE2MycGEuaW5ncmVkaWVudC52MwAAAAAYYzJzaD3kWCycBPRRUORCN6Hy5asAAABwY2JvcqNpZGM6Zm9ybWF0bWltYWdlL3N2Zyt4bWxqaW5zdGFuY2VJRHgseG1wOmlpZDo3ZWI2YTlmOS00NTBlLTRhOTMtODdjNS1iMjQ5MzU0NTcwNDhscmVsYXRpb25zaGlwaHBhcmVudE9mAAAB4mp1bWIAAABBanVtZGNib3IAEQAQgAAAqgA4m3ETYzJwYS5hY3Rpb25zLnYyAAAAABhjMnNoBd1dYqEFupz9rdZDTE3aQwAAAZljYm9yomdhY3Rpb25zgqJmYWN0aW9ua2MycGEub3BlbmVkanBhcmFtZXRlcnOha2luZ3JlZGllbnRzgaJjdXJseC1zZWxmI2p1bWJmPWMycGEuYXNzZXJ0aW9ucy9jMnBhLmluZ3JlZGllbnQudjNkaGFzaFggFXaPOEHRoSuw/pG1oXcQ4EKs/62sfLcYVWyCZD3TrtKkZmFjdGlvbngdY29tLmFudGhyb3BpYy5jbGF1ZGUucHJvdmlkZWRqcGFyYW1ldGVyc6F4H2NvbS5hbnRocm9waWMub3JpZ2luLWNvbmZpZGVuY2VndW5rbm93bmtkZXNjcmlwdGlvbnhmQ2xhdWRlIHByb3ZpZGVkIHRoaXMgZmlsZSBhdCB0aGUgcmVxdWVzdCBvZiBhIHVzZXIgYW5kIG1heSBoYXZlIGNyZWF0ZWQgb3IgbW9kaWZpZWQgdGhlIGZpbGUgY29udGVudHMubXNvZnR3YXJlQWdlbnShZG5hbWVmQ2xhdWRlcmFsbEFjdGlvbnNJbmNsdWRlZPUAAADIanVtYgAAAEBqdW1kY2JvcgARABCAAACqADibcRNjMnBhLmhhc2guZGF0YQAAAAAYYzJzaMpvqxq7H5oF2EmRBHTtJ8cAAACAY2JvcqVjYWxnZnNoYTI1NmNwYWRNAAAAAAAAAAAAAAAAAGRoYXNoWCD/2052t55ti1sVpZYJykItUe+IbOk9Oi+DFhi/FCB2JGRuYW1lbmp1bWJmIG1hbmlmZXN0amV4Y2x1c2lvbnOBomVzdGFydBjKZmxlbmd0aBkeBAAAAj5qdW1iAAAAJ2p1bWRjMmNsABEAEIAAAKoAOJtxA2MycGEuY2xhaW0udjIAAAACD2Nib3KlY2FsZ2ZzaGEyNTZpc2lnbmF0dXJleE1zZWxmI2p1bWJmPS9jMnBhL3VybjpjMnBhOjhlZDA5MTE4LWU4MzctNDQ1Mi1hMmE2LWEzZTQzNGE4YTUzYi9jMnBhLnNpZ25hdHVyZWppbnN0YW5jZUlEeCx4bXA6aWlkOjZmOWQ0YjE0LTA0ZWYtNDUwMS1hOGJlLWM2MzU3YjI4NzE5ZHJjcmVhdGVkX2Fzc2VydGlvbnODomN1cmx4LXNlbGYjanVtYmY9YzJwYS5hc3NlcnRpb25zL2MycGEuaW5ncmVkaWVudC52M2RoYXNoWCAVdo84QdGhK7D+kbWhdxDgQqz/rax8txhVbIJkPdOu0qJjdXJseCpzZWxmI2p1bWJmPWMycGEuYXNzZXJ0aW9ucy9jMnBhLmFjdGlvbnMudjJkaGFzaFggaP00xBx3JjzGram6OHZZ2JGMRoo95TA35JRpmHQK+CyiY3VybHgpc2VsZiNqdW1iZj1jMnBhLmFzc2VydGlvbnMvYzJwYS5oYXNoLmRhdGFkaGFzaFgg4K0/HBbTtTcTxCo9lFzLmgkB8kFcwkVpUk6HB+ZetQZ0Y2xhaW1fZ2VuZXJhdG9yX2luZm+jZG5hbWVvQW50aHJvcGljIEZpbGVzZ3ZlcnNpb25lMS4wLjBrc3BlY1ZlcnNpb25lMi40LjAAABA4anVtYgAAAChqdW1kYzJjcwARABCAAACqADibcQNjMnBhLnNpZ25hdHVyZQAAABAIY2JvctKEWQISogEmGCFZAgowggIGMIIBjaADAgECAhRA5aAK7sI50L64g/oGQgU9Z1UTADAKBggqhkjOPQQDAzBJMRcwFQYDVQQKEw5BbnRocm9waWMsIFBCQzEuMCwGA1UEAxMlQW50aHJvcGljIENvbnRlbnQgQ3JlZGVudGlhbHMgUm9vdCBDQTAeFw0yNjA4MDcxODQzNTZaFw0yODA4MDYxOTQzNTZaMEQxFzAVBgNVBAoTDkFudGhyb3BpYywgUEJDMSkwJwYDVQQDEyBBbnRocm9waWMgQ2xhdWRlIENvbnRlbnQgU2lnbmluZzBZMBMGByqGSM49AgEGCCqGSM49AwEHA0IABJh6CmvLUBgFFNU0vUKlOVtE6djd17L5SuwX0LemFisBM3dkd/3cyjxFA3Qo5S46fX0/ihY0VZ7mfb9KF703t5OjWDBWMA4GA1UdDwEB/wQEAwIHgDAVBgNVHSUEDjAMBgorBgEEAYPoXgIBMAwGA1UdEwEB/wQCMAAwHwYDVR0jBBgwFoAUzlHiBIFOZFsj+OPEz5o+nMHXXMIwCgYIKoZIzj0EAwMDZwAwZAIwMXMdFJ4BetLLVY7ORuE9noqbbAZOZn/aArXyTwFAZfKrPzxF2vPoJNf1+UCdg1XGAjBwX1zd9WGqYkqmL5SFqw1QySjr1zJfpJM9+1rdDwSPLMOPOjKuiXjoU/pUUeG9RwmhY3BhZFkNngAAAAAAAAAAAAAAAAAAAAAAAAAAAAAAAAAAAAAAAAAAAAAAAAAAAAAAAAAAAAAAAAAAAAAAAAAAAAAAAAAAAAAAAAAAAAAAAAAAAAAAAAAAAAAAAAAAAAAAAAAAAAAAAAAAAAAAAAAAAAAAAAAAAAAAAAAAAAAAAAAAAAAAAAAAAAAAAAAAAAAAAAAAAAAAAAAAAAAAAAAAAAAAAAAAAAAAAAAAAAAAAAAAAAAAAAAAAAAAAAAAAAAAAAAAAAAAAAAAAAAAAAAAAAAAAAAAAAAAAAAAAAAAAAAAAAAAAAAAAAAAAAAAAAAAAAAAAAAAAAAAAAAAAAAAAAAAAAAAAAAAAAAAAAAAAAAAAAAAAAAAAAAAAAAAAAAAAAAAAAAAAAAAAAAAAAAAAAAAAAAAAAAAAAAAAAAAAAAAAAAAAAAAAAAAAAAAAAAAAAAAAAAAAAAAAAAAAAAAAAAAAAAAAAAAAAAAAAAAAAAAAAAAAAAAAAAAAAAAAAAAAAAAAAAAAAAAAAAAAAAAAAAAAAAAAAAAAAAAAAAAAAAAAAAAAAAAAAAAAAAAAAAAAAAAAAAAAAAAAAAAAAAAAAAAAAAAAAAAAAAAAAAAAAAAAAAAAAAAAAAAAAAAAAAAAAAAAAAAAAAAAAAAAAAAAAAAAAAAAAAAAAAAAAAAAAAAAAAAAAAAAAAAAAAAAAAAAAAAAAAAAAAAAAAAAAAAAAAAAAAAAAAAAAAAAAAAAAAAAAAAAAAAAAAAAAAAAAAAAAAAAAAAAAAAAAAAAAAAAAAAAAAAAAAAAAAAAAAAAAAAAAAAAAAAAAAAAAAAAAAAAAAAAAAAAAAAAAAAAAAAAAAAAAAAAAAAAAAAAAAAAAAAAAAAAAAAAAAAAAAAAAAAAAAAAAAAAAAAAAAAAAAAAAAAAAAAAAAAAAAAAAAAAAAAAAAAAAAAAAAAAAAAAAAAAAAAAAAAAAAAAAAAAAAAAAAAAAAAAAAAAAAAAAAAAAAAAAAAAAAAAAAAAAAAAAAAAAAAAAAAAAAAAAAAAAAAAAAAAAAAAAAAAAAAAAAAAAAAAAAAAAAAAAAAAAAAAAAAAAAAAAAAAAAAAAAAAAAAAAAAAAAAAAAAAAAAAAAAAAAAAAAAAAAAAAAAAAAAAAAAAAAAAAAAAAAAAAAAAAAAAAAAAAAAAAAAAAAAAAAAAAAAAAAAAAAAAAAAAAAAAAAAAAAAAAAAAAAAAAAAAAAAAAAAAAAAAAAAAAAAAAAAAAAAAAAAAAAAAAAAAAAAAAAAAAAAAAAAAAAAAAAAAAAAAAAAAAAAAAAAAAAAAAAAAAAAAAAAAAAAAAAAAAAAAAAAAAAAAAAAAAAAAAAAAAAAAAAAAAAAAAAAAAAAAAAAAAAAAAAAAAAAAAAAAAAAAAAAAAAAAAAAAAAAAAAAAAAAAAAAAAAAAAAAAAAAAAAAAAAAAAAAAAAAAAAAAAAAAAAAAAAAAAAAAAAAAAAAAAAAAAAAAAAAAAAAAAAAAAAAAAAAAAAAAAAAAAAAAAAAAAAAAAAAAAAAAAAAAAAAAAAAAAAAAAAAAAAAAAAAAAAAAAAAAAAAAAAAAAAAAAAAAAAAAAAAAAAAAAAAAAAAAAAAAAAAAAAAAAAAAAAAAAAAAAAAAAAAAAAAAAAAAAAAAAAAAAAAAAAAAAAAAAAAAAAAAAAAAAAAAAAAAAAAAAAAAAAAAAAAAAAAAAAAAAAAAAAAAAAAAAAAAAAAAAAAAAAAAAAAAAAAAAAAAAAAAAAAAAAAAAAAAAAAAAAAAAAAAAAAAAAAAAAAAAAAAAAAAAAAAAAAAAAAAAAAAAAAAAAAAAAAAAAAAAAAAAAAAAAAAAAAAAAAAAAAAAAAAAAAAAAAAAAAAAAAAAAAAAAAAAAAAAAAAAAAAAAAAAAAAAAAAAAAAAAAAAAAAAAAAAAAAAAAAAAAAAAAAAAAAAAAAAAAAAAAAAAAAAAAAAAAAAAAAAAAAAAAAAAAAAAAAAAAAAAAAAAAAAAAAAAAAAAAAAAAAAAAAAAAAAAAAAAAAAAAAAAAAAAAAAAAAAAAAAAAAAAAAAAAAAAAAAAAAAAAAAAAAAAAAAAAAAAAAAAAAAAAAAAAAAAAAAAAAAAAAAAAAAAAAAAAAAAAAAAAAAAAAAAAAAAAAAAAAAAAAAAAAAAAAAAAAAAAAAAAAAAAAAAAAAAAAAAAAAAAAAAAAAAAAAAAAAAAAAAAAAAAAAAAAAAAAAAAAAAAAAAAAAAAAAAAAAAAAAAAAAAAAAAAAAAAAAAAAAAAAAAAAAAAAAAAAAAAAAAAAAAAAAAAAAAAAAAAAAAAAAAAAAAAAAAAAAAAAAAAAAAAAAAAAAAAAAAAAAAAAAAAAAAAAAAAAAAAAAAAAAAAAAAAAAAAAAAAAAAAAAAAAAAAAAAAAAAAAAAAAAAAAAAAAAAAAAAAAAAAAAAAAAAAAAAAAAAAAAAAAAAAAAAAAAAAAAAAAAAAAAAAAAAAAAAAAAAAAAAAAAAAAAAAAAAAAAAAAAAAAAAAAAAAAAAAAAAAAAAAAAAAAAAAAAAAAAAAAAAAAAAAAAAAAAAAAAAAAAAAAAAAAAAAAAAAAAAAAAAAAAAAAAAAAAAAAAAAAAAAAAAAAAAAAAAAAAAAAAAAAAAAAAAAAAAAAAAAAAAAAAAAAAAAAAAAAAAAAAAAAAAAAAAAAAAAAAAAAAAAAAAAAAAAAAAAAAAAAAAAAAAAAAAAAAAAAAAAAAAAAAAAAAAAAAAAAAAAAAAAAAAAAAAAAAAAAAAAAAAAAAAAAAAAAAAAAAAAAAAAAAAAAAAAAAAAAAAAAAAAAAAAAAAAAAAAAAAAAAAAAAAAAAAAAAAAAAAAAAAAAAAAAAAAAAAAAAAAAAAAAAAAAAAAAAAAAAAAAAAAAAAAAAAAAAAAAAAAAAAAAAAAAAAAAAAAAAAAAAAAAAAAAAAAAAAAAAAAAAAAAAAAAAAAAAAAAAAAAAAAAAAAAAAAAAAAAAAAAAAAAAAAAAAAAAAAAAAAAAAAAAAAAAAAAAAAAAAAAAAAAAAAAAAAAAAAAAAAAAAAAAAAAAAAAAAAAAAAAAAAAAAAAAAAAAAAAAAAAAAAAAAAAAAAAAAAAAAAAAAAAAAAAAAAAAAAAAAAAAAAAAAAAAAAAAAAAAAAAAAAAAAAAAAAAAAAAAAAAAAAAAAAAAAAAAAAAAAAAAAAAAAAAAAAAAAAAAAAAAAAAAAAAAAAAAAAAAAAAAAAAAAAAAAAAAAAAAAAAAAAAAAAAAAAAAAAAAAAAAAAAAAAAAAAAAAAAAAAAAAAAAAAAAAAAAAAAAAAAAAAAAAAAAAAAAAAAAAAAAAAAAAAAAAAAAAAAAAAAAAAAAAAAAAAAAAAAAAAAAAAAAAAAAAAAAAAAAAAAAAAAAAAAAAAAAAAAAAAAAAAAAAAAAAAAAAAAAAAAAAAAAAAAAAAAAAAAAAAAAAAAAAAAAAAAAAAAAAAAAAAAAAAAAAAAAAAAAAAAAAAAAAAAAAAAAAAAAAAAAAAAAAAAAAAAAAAAAAAAAAAAAAAAAAAAAAAAAAAAAAAAAAAAAAAAAAAAAAAAAAAAAAAAAAAAAAAAAAAAAAAAAAAAAAAAAAAAAAAAAAAAAAAAAAAAAAAAAAAAAAAAAAAAAAAAAAAAAAAAAAAAAAAAAAAAAAAAAAAAAAAAAAAAAAAAAAAAAAAAAAAAAAAAAAAAAAAAAAAAAAAAAAAAAAAAAAAAAAAAAAAAAAAAAAAAAAAAAAAAAAAAAAAAAAAAAAAAAAAAAAAAAAAAAAAAAAAAAAAAAAAAAAAAAAAAAAAAAAAAAAAAAAAAAAAAAAAAAAAAAAAAAAAAAAAAAAAAAAAAAAAAAAAAAAAAAAAAAAAAAAAAAAAAAAAAAAAAAAAAAAAAAAAAAAAAAAAAAAAAAAAAAAAAAAAAAAAAAAAAAAAAAAAAAAAAAAAAAAAAAAAAAAAAAAAAAAAAAAAAAAAAAAAAAAAAAAAAAAAAAAAAAAAAAAAAAAAAAAAAAAAAAAAAAAAAAAAAAAAAAAAAAAAAAAAAAAAAAAAAAAAAAAAAAAAAAAAAAAAAAAAAAAAAAAAAAAAAAAAAAAAAAAAAAAAAAAAAAAAAAAAAAAAAAAAAAAAAAAAAAAAAAAAAAAAAAAAAAAAAAAAAAAAAAAAAAAAAAAAAAAAAAAAAAAAAAAAAAAAAAAAAAAAAAAAAAAAAAAAAAAAAAAAAAAAAAAAAAAAAAAAAAAAAAAAAAAAAAAAAAAAAAAAAAAAAAAAAAAAAAAAAAAAAAAAAAAAAAAAAAAAAAAAAAAAAAAAAAAAAAAAAAAAAAAAAAAAAAAAAAAAAAAAAAAAAAAAAAAAAAAAAAAAAAAAAAAAAAAAAAAAAAAAAAAAAAAAAAAAAAAAAAAAAAAAAAAAAAAAAAAAAAAAAAAAAAAAAAAAAAAAAAAAAAAAAAAAAAAAAAAAAAAAAAAAAAAAAAAAAAAAAAAAAAAAAAAAAAAAAAAAAAAAAAAAAAAAAAAAAAAAAAAAAAAAAAAAAAAAAAAAAAAAAAAAAAAAAAAAAAAAAAAAAAAAAAAAAAAAAAAAAAAAAAAAAAAAAAAAAAAAAAAAAAAAAAAAAAAAAAAAAAAAAAAAAAAAAAAAAAAAAAAAAAAAAAAAAPZYQNCgvSycLqho+Udq90ouGLNynwFEy4+lEt+xmI1CKfYzCbm8nMTv1vRABHqmLZDrY7XtlCeAsKtHqf7AXBZdVIM=</c2pa:manifest></metadata>

<g transform="translate(0.000000,4134.000000) scale(0.100000,-0.100000)" fill="#F9F9FA" stroke="none">
<path d="M23405 25271 c-120 -20 -310 -83 -430 -143 -373 -187 -730 -589 -1044 -1178 -139 -258 -316 -663 -412 -942 l-34 -97 -110 -30 c-257 -72 -541 -126 -820 -157 -194 -21 -595 -29 -790 -15 -334 24 -714 84 -899 143 -229 72 -531 263 -655 413 -69 83 -96 148 -96 230 0 160 103 277 455 515 118 79 240 170 271 200 61 60 87 117 75 164 -10 42 -61 90 -132 127 -61 30 -77 34 -169 37 -120 5 -210 -16 -339 -77 -230 -110 -384 -255 -489 -459 -65 -124 -88 -219 -89 -357 -2 -223 80 -402 268 -587 395 -388 911 -571 1739 -619 424 -24 1079 18 1560 100 61 11 112 18 113 16 9 -9 -158 -433 -265 -674 -62 -140 -293 -604 -318 -637 -10 -15 -24 -12 -131 29 -393 149 -769 165 -989 42 -77 -43 -181 -151 -218 -229 -85 -175 -46 -349 114 -508 166 -164 385 -220 670 -172 226 38 417 135 586 297 l62 59 368 -210 c992 -565 1865 -1035 2292 -1232 570 -264 1147 -437 1731 -519 392 -56 766 -76 1270 -68 468 7 719 31 1026 98 240 52 509 161 683 276 98 65 246 203 291 272 39 57 38 108 0 129 -64 34 -283 -13 -760 -163 -586 -184 -841 -240 -1255 -275 -154 -13 -605 -13 -771 0 -622 48 -1239 193 -1899 445 -454 174 -813 348 -1340 650 -280 160 -1402 842 -1432 869 -9 8 4 41 58 141 206 379 433 862 600 1279 l88 219 98 51 c196 103 545 314 773 466 707 474 1117 957 1199 1414 16 88 13 300 -4 375 -31 130 -113 230 -223 271 -64 24 -196 34 -277 21z m196 -277 c40 -36 54 -101 53 -244 -1 -116 -5 -148 -28 -225 -114 -384 -509 -787 -1143 -1167 -165 -100 -463 -261 -470 -255 -5 6 93 241 161 382 198 412 448 763 801 1124 326 333 539 464 626 385z m-3326 -3858 c44 -14 112 -43 152 -64 84 -43 223 -138 223 -152 0 -15 -190 -137 -274 -175 -171 -79 -351 -97 -459 -45 -67 32 -140 105 -162 163 -15 41 -16 53 -6 89 24 79 149 180 257 208 62 15 181 4 269 -24z M7610 24764 c-645 -32 -1207 -199 -1735 -515 -285 -170 -525 -360 -767 -607 -276 -282 -415 -482 -592 -853 -342 -718 -427 -1340 -237 -1745 72 -153 157 -259 283 -354 193 -146 423 -225 768 -266 211 -25 751 -26 945 -1 584 75 1115 275 1625 612 85 56 173 116 194 133 l40 30 22 -89 c30 -119 75 -201 154 -279 120 -121 277 -174 515 -174 127 0 148 3 225 28 47 16 107 39 134 53 43 22 48 23 41 6 -4 -10 -10 -88 -12 -173 -5 -168 7 -251 48 -331 31 -62 95 -126 155 -155 50 -24 64 -26 191 -27 131 -2 142 0 233 31 302 105 649 367 1120 848 334 341 681 766 1014 1242 44 61 82 112 87 112 11 0 74 -107 113 -192 47 -101 92 -246 111 -357 15 -85 24 -325 13 -336 -3 -3 -31 6 -64 19 -93 38 -162 49 -271 44 -91 -3 -107 -7 -175 -41 -227 -112 -273 -316 -110 -482 27 -28 75 -61 112 -79 58 -27 75 -30 155 -30 136 0 266 52 396 156 l63 51 45 -18 c321 -123 464 -158 651 -158 164 1 248 20 395 92 129 62 245 149 373 278 l102 104 11 -28 c27 -74 58 -122 117 -185 51 -54 83 -77 146 -108 115 -54 170 -65 326 -65 157 1 243 20 375 85 140 69 309 212 436 369 l36 43 6 -110 c28 -490 270 -834 692 -985 219 -78 601 -93 912 -37 540 97 1089 440 1252 780 33 70 36 81 35 166 -1 173 -77 239 -173 151 -13 -12 -55 -67 -94 -121 -216 -305 -438 -533 -613 -632 -75 -42 -294 -115 -429 -143 -405 -83 -712 -24 -926 177 -164 154 -281 396 -307 637 -15 131 0 220 53 336 34 72 45 107 45 145 0 179 -224 337 -370 262 -40 -20 -61 -47 -181 -228 -268 -402 -416 -542 -624 -587 -102 -22 -169 -8 -231 49 -68 63 -81 148 -44 294 41 158 111 275 242 400 96 92 190 151 304 191 152 52 332 34 454 -47 109 -73 250 -7 250 116 0 59 -33 102 -109 143 -259 137 -621 165 -906 69 -366 -122 -627 -402 -689 -738 -9 -47 -19 -107 -22 -135 -5 -46 -12 -56 -92 -137 -87 -90 -210 -183 -326 -249 -271 -155 -543 -159 -826 -13 -135 70 -129 61 -90 146 49 105 71 199 77 324 7 139 -8 248 -52 380 -60 181 -159 356 -300 531 l-66 83 21 30 c33 46 87 168 105 240 12 47 16 93 13 166 -3 93 -6 107 -41 177 -81 164 -215 226 -352 162 -53 -25 -145 -120 -176 -181 -22 -44 -24 -61 -24 -174 1 -131 13 -195 71 -369 l25 -73 -67 -127 c-438 -828 -1030 -1504 -1724 -1969 -167 -112 -296 -181 -394 -211 -84 -26 -107 -26 -137 -2 -20 16 -24 27 -22 78 0 32 11 101 23 153 49 207 126 387 256 597 107 172 148 265 152 344 6 93 -17 158 -77 220 -34 35 -55 49 -75 49 -69 0 -132 -64 -221 -225 -266 -477 -587 -712 -861 -630 -177 52 -238 203 -175 430 12 43 36 105 53 136 92 174 293 332 523 410 57 20 90 24 180 24 l110 0 75 -42 c126 -70 253 -93 320 -58 38 20 50 43 50 101 0 72 -36 125 -118 173 -320 189 -775 190 -1147 3 -206 -103 -371 -269 -439 -439 -20 -50 -36 -69 -119 -139 -398 -336 -894 -577 -1492 -725 -765 -189 -1369 -145 -1636 121 -119 119 -170 265 -171 485 -2 701 623 1754 1417 2386 265 211 503 348 815 472 619 244 1003 246 1111 4 35 -77 33 -231 -3 -339 -82 -246 -353 -426 -705 -469 -77 -9 -119 -9 -178 0 -117 17 -156 38 -211 115 -56 78 -98 103 -148 86 -40 -13 -66 -40 -96 -99 -59 -117 -21 -276 83 -346 223 -152 831 -6 1257 301 172 123 287 265 331 404 101 323 -11 635 -273 760 -133 64 -342 95 -568 84z m4555 -1632 c0 -42 -7 -95 -15 -117 l-14 -40 -7 30 c-11 49 -10 160 2 194 18 52 34 21 34 -67z m-70 -1897 c28 -13 61 -33 75 -44 l25 -20 -68 -32 c-111 -52 -189 -49 -257 8 -51 42 -32 82 52 108 53 17 107 11 173 -20z M23968 23020 c-49 -33 -113 -109 -146 -175 -51 -102 -69 -252 -39 -312 28 -53 86 -93 134 -93 167 2 367 375 284 530 -44 84 -148 106 -233 50z M35280 22684 c-389 -83 -674 -322 -867 -723 -144 -302 -170 -340 -352 -521 -337 -336 -779 -656 -832 -603 -16 16 20 110 145 377 181 387 235 543 258 747 26 236 -47 448 -180 522 -177 98 -494 -2 -942 -299 -69 -45 -170 -116 -225 -158 -55 -41 -101 -74 -102 -72 -1 1 9 34 22 73 36 108 55 213 55 306 0 73 -4 92 -28 138 -41 80 -88 102 -217 107 -163 6 -226 -16 -597 -214 -109 -58 -261 -134 -339 -169 l-142 -64 -39 79 c-45 93 -112 166 -189 207 -51 26 -61 28 -179 28 -119 -1 -129 -2 -217 -36 -111 -43 -232 -114 -321 -189 -82 -69 -104 -105 -105 -173 0 -52 -1 -52 -92 -147 -252 -262 -369 -503 -364 -748 l2 -95 -44 -54 c-63 -79 -251 -259 -347 -331 -270 -202 -725 -395 -834 -353 -84 32 -25 177 262 646 261 424 342 605 344 760 1 68 -3 87 -24 125 -53 94 -173 135 -370 127 -139 -5 -246 -29 -415 -92 -130 -48 -449 -205 -595 -293 -63 -38 -116 -68 -118 -67 -1 1 27 51 62 110 86 142 128 257 129 350 0 47 -5 81 -16 102 -81 155 -407 149 -817 -14 -293 -116 -652 -330 -1028 -612 -156 -117 -163 -120 -137 -79 49 80 134 262 149 324 41 159 8 280 -93 341 -100 60 -211 53 -376 -26 -129 -61 -231 -128 -441 -286 -388 -295 -458 -347 -551 -409 -283 -188 -505 -258 -645 -204 -66 25 -36 153 94 406 238 462 258 509 258 605 0 57 -23 103 -92 181 -32 37 -37 39 -92 38 -77 -1 -157 -40 -256 -127 -84 -74 -254 -192 -339 -234 -88 -45 -222 -89 -305 -100 -122 -17 -187 4 -306 99 -112 89 -136 96 -181 51 -25 -26 -29 -37 -29 -88 0 -130 91 -234 244 -278 48 -14 84 -16 180 -12 143 6 258 33 424 100 61 25 112 43 112 41 0 -3 -33 -87 -74 -187 -96 -237 -111 -294 -111 -432 0 -102 2 -115 31 -175 38 -81 78 -128 151 -176 89 -59 159 -77 283 -71 135 6 243 38 415 121 211 102 437 249 715 466 69 54 197 155 285 223 88 69 162 124 164 122 2 -2 -40 -93 -92 -202 -171 -354 -197 -432 -197 -583 0 -79 4 -104 24 -145 41 -90 121 -134 215 -120 67 10 111 36 198 118 254 236 972 805 1238 980 151 99 394 202 524 223 l45 7 -22 -29 c-12 -16 -51 -67 -87 -114 -81 -105 -187 -315 -217 -430 -15 -58 -22 -115 -23 -180 0 -83 3 -100 25 -139 39 -70 89 -104 158 -109 73 -5 127 20 234 108 187 154 575 418 748 508 212 110 394 163 420 122 22 -35 -16 -114 -201 -421 -162 -269 -262 -466 -301 -589 -19 -62 -23 -97 -23 -200 0 -117 2 -129 28 -183 118 -240 493 -342 852 -230 170 53 382 173 560 316 92 74 249 225 323 311 l51 59 56 -51 c63 -58 136 -101 215 -128 83 -28 251 -26 350 5 202 62 380 196 536 403 159 212 231 431 243 741 l6 167 142 64 c78 35 226 108 330 163 185 99 281 144 336 157 58 14 46 -43 -62 -288 -95 -212 -114 -283 -115 -406 -1 -98 1 -109 28 -158 50 -89 145 -144 250 -145 117 0 180 49 327 255 164 230 341 395 554 517 150 86 325 143 389 127 27 -7 28 -9 23 -51 -9 -65 -116 -377 -192 -560 -174 -419 -196 -497 -176 -618 16 -95 52 -167 123 -243 171 -183 398 -178 725 16 145 85 429 300 561 424 29 27 54 47 55 45 2 -2 18 -29 35 -59 191 -335 572 -460 1117 -365 536 94 1147 407 1515 775 144 145 247 298 291 431 21 64 24 93 24 209 0 117 -3 141 -22 182 -52 113 -140 52 -275 -192 -121 -218 -222 -354 -403 -539 -149 -153 -286 -267 -467 -387 -365 -244 -757 -372 -990 -323 -120 25 -246 116 -301 216 -68 126 -76 300 -22 487 l16 53 57 13 c169 37 463 164 619 266 200 130 303 292 303 479 -1 119 -57 198 -164 230 -63 19 -247 18 -336 -1z m200 -329 c10 -13 11 -27 1 -69 -24 -106 -91 -177 -238 -253 -81 -42 -339 -130 -349 -120 -3 3 13 33 35 66 129 190 273 310 444 371 65 23 91 24 107 5z m-4893 -196 c43 -21 83 -65 83 -92 0 -23 -132 -57 -226 -57 -81 0 -177 24 -218 55 -20 15 -20 15 0 30 34 28 113 65 167 80 63 18 136 12 194 -16z m-437 -387 c100 -40 205 -56 306 -48 79 6 192 34 246 62 33 17 37 8 45 -103 11 -151 -40 -347 -128 -497 -56 -94 -167 -204 -244 -242 -108 -52 -248 -43 -335 21 -140 103 -173 348 -84 622 37 114 91 226 106 220 7 -3 47 -19 88 -35z M28901 17218 c-95 -66 -175 -127 -178 -134 -2 -6 7 -35 22 -64 22 -44 29 -50 48 -44 75 23 301 126 349 158 l58 38 -58 83 c-31 47 -59 84 -63 85 -3 0 -83 -55 -178 -122z M14321 16859 c-154 -26 -287 -144 -348 -309 -64 -172 -55 -438 20 -593 49 -102 94 -150 185 -194 l76 -38 136 0 136 0 76 38 c126 62 207 168 250 324 28 103 30 325 5 423 -71 269 -263 394 -536 349z m199 -183 c75 -49 120 -191 120 -379 0 -184 -43 -328 -115 -382 -97 -74 -240 -44 -298 63 -41 76 -57 160 -57 312 0 237 46 353 160 405 51 23 140 14 190 -19z M21520 16859 c-94 -10 -172 -65 -218 -153 -22 -43 -26 -64 -27 -138 0 -83 2 -89 46 -176 l45 -89 -43 -28 c-86 -54 -132 -142 -133 -254 0 -40 5 -92 12 -113 17 -57 87 -131 150 -158 113 -49 278 -44 397 11 56 25 66 28 80 15 9 -7 32 -22 51 -32 46 -24 179 -25 233 -1 l37 16 0 69 0 70 -74 4 c-55 2 -80 8 -95 22 -18 17 -19 21 -7 35 27 31 57 102 74 178 l18 78 47 13 47 13 0 70 0 69 -195 0 c-107 0 -195 4 -195 9 0 5 7 14 16 22 51 42 81 201 55 282 -41 124 -160 185 -321 166z m83 -138 c48 -18 63 -132 27 -206 -11 -23 -33 -54 -49 -69 l-30 -29 -20 34 c-67 110 -61 239 12 269 29 12 32 12 60 1z m170 -486 c12 -3 40 -9 62 -13 l40 -8 -2 -55 c-1 -30 -6 -66 -12 -81 l-10 -28 -49 53 c-27 28 -74 83 -105 121 l-56 69 43 28 c24 15 48 33 52 41 6 8 10 -12 12 -54 3 -61 5 -68 25 -73z m-253 -137 c30 -38 81 -99 113 -134 55 -60 57 -63 37 -74 -29 -15 -111 -24 -154 -16 -82 16 -137 107 -117 195 8 38 46 101 59 101 4 -1 32 -33 62 -72z M24265 16859 c-89 -13 -196 -68 -260 -134 -100 -102 -156 -266 -155 -454 2 -295 134 -493 361 -542 86 -19 299 -6 389 23 87 28 84 21 95 209 l7 117 -28 6 c-16 3 -51 6 -79 8 l-49 2 -31 -93 c-34 -106 -48 -119 -141 -128 -183 -19 -285 135 -284 432 1 294 109 431 314 401 70 -11 84 -28 104 -131 l18 -90 74 0 75 0 7 40 c3 22 8 93 9 158 3 95 0 120 -11 127 -27 17 -114 39 -200 49 -95 12 -130 12 -215 0z M12140 16781 l0 -70 63 -13 62 -14 0 -394 0 -394 -40 -8 c-92 -18 -85 -11 -85 -88 l0 -70 240 0 240 0 0 70 0 69 -37 10 c-21 5 -50 13 -65 17 l-28 6 0 159 0 159 200 0 200 0 -2 -162 -3 -162 -30 -7 c-16 -4 -42 -10 -57 -13 -27 -6 -28 -8 -28 -76 l0 -70 240 0 240 0 0 69 c0 76 3 73 -70 86 -77 14 -70 -28 -70 405 0 362 1 389 18 393 9 3 41 11 70 17 l52 12 0 69 0 69 -240 0 -240 0 0 -69 0 -69 58 -14 57 -14 3 -147 3 -147 -201 0 -200 0 0 145 0 144 38 10 c20 5 49 12 65 15 26 6 27 8 27 76 l0 70 -240 0 -240 0 0 -69z M15546 16808 c-7 -55 -11 -193 -8 -280 l2 -68 73 0 74 0 23 103 c12 56 28 107 34 114 6 7 44 15 84 19 l72 7 0 -401 0 -400 -72 -12 c-40 -6 -80 -12 -88 -13 -11 -2 -16 -19 -18 -75 l-3 -72 296 0 295 0 0 69 c0 79 8 73 -112 92 l-78 13 0 399 0 400 76 -6 c42 -4 79 -9 83 -12 4 -2 18 -54 31 -115 l23 -110 72 0 73 0 7 85 c4 46 4 134 0 195 l-8 110 -463 0 -463 0 -5 -42z M17170 16781 l0 -70 63 -13 62 -14 0 -394 0 -394 -40 -8 c-92 -18 -85 -11 -85 -88 l0 -70 409 0 409 0 11 78 c7 42 15 120 18 173 l6 96 -54 6 c-90 11 -85 15 -114 -75 -15 -46 -34 -90 -42 -98 -10 -12 -46 -16 -153 -18 l-140 -4 0 166 0 166 160 0 160 0 0 88 0 87 -160 -4 -161 -3 3 153 3 154 55 3 c77 5 178 -7 193 -23 7 -7 19 -45 27 -84 l13 -71 74 0 73 0 0 165 0 165 -395 0 -395 0 0 -69z M18690 16781 l0 -70 58 -11 c31 -6 63 -13 70 -15 10 -4 12 -88 10 -397 l-3 -392 -45 -9 c-98 -17 -90 -10 -90 -87 l0 -70 409 0 409 0 11 64 c6 36 14 121 18 190 l6 125 -24 5 c-13 3 -45 8 -71 11 l-46 6 -32 -103 c-17 -57 -38 -110 -46 -118 -11 -11 -46 -16 -144 -19 l-130 -3 0 395 c0 443 -8 399 75 411 103 16 95 10 95 87 l0 69 -265 0 -265 0 0 -69z M25593 16375 l-158 -476 -40 -10 c-22 -6 -48 -12 -57 -15 -15 -4 -18 -17 -18 -75 l0 -69 205 0 205 0 0 69 c0 76 2 73 -73 87 -29 5 -38 11 -34 23 3 9 13 44 22 79 l18 62 167 0 166 0 26 -79 26 -79 -45 -7 c-74 -11 -73 -10 -73 -86 l0 -69 230 0 230 0 0 69 0 69 -56 18 -57 19 -149 430 c-81 237 -155 449 -164 473 l-16 42 -98 0 -98 0 -159 -475z m288 18 c28 -87 54 -164 57 -170 3 -10 -22 -13 -107 -13 -61 0 -111 3 -111 6 0 9 103 334 106 334 1 0 26 -71 55 -157z M27010 16780 c0 -77 -7 -70 85 -88 l40 -8 0 -394 0 -394 -40 -8 c-92 -18 -85 -11 -85 -88 l0 -70 275 0 275 0 0 69 c0 78 3 75 -90 86 -30 3 -67 8 -82 11 l-28 6 0 154 0 154 155 -6 155 -7 0 93 0 93 -155 -5 -155 -6 0 166 0 165 113 -6 c61 -2 119 -8 128 -11 11 -5 22 -35 34 -87 l17 -79 68 0 c83 0 80 -8 80 188 l0 142 -395 0 -395 0 0 -70z M28460 16781 l0 -69 66 -15 c36 -9 67 -17 69 -19 1 -2 0 -178 -4 -393 l-6 -389 -40 -8 c-92 -18 -85 -11 -85 -88 l0 -70 410 0 c226 0 410 3 410 8 0 4 7 52 15 107 8 55 15 130 15 166 l0 66 -52 7 c-89 10 -84 13 -113 -76 -15 -46 -34 -90 -42 -98 -10 -12 -45 -16 -148 -18 l-135 -4 0 166 0 166 155 0 155 0 0 88 0 87 -155 -4 -155 -3 0 157 0 158 116 -6 c64 -3 121 -10 126 -15 6 -6 18 -43 27 -84 l17 -73 72 -3 72 -3 0 166 0 165 -395 0 -395 0 0 -69z"></path>
</g>
</svg>